<svg width="95" height="98" viewBox="0 0 95 98" fill="none" xmlns="http://www.w3.org/2000/svg">
<path d="M84.4863 26.6183L78.994 23.8721C75.1494 16.4575 78.5363 11.8577 80.7103 10.4847C87.2324 6.70871 90.7795 3.96257 91.6949 2.24622C93.068 5.22122 95.2649 12.6816 93.068 18.7231C90.8711 24.7646 86.4315 26.5039 84.4863 26.6183Z" fill="#CFB399" stroke="#3E3B39" stroke-width="2" stroke-linecap="round"/>
<path d="M82.3959 32.7683L74.5007 28.6491L77.5901 26.2462L83.0824 29.3356L82.3959 32.7683Z" fill="#CFB399" stroke="#3E3B39" stroke-width="2" stroke-linecap="round"/>
<path d="M55.2777 61.7971C59.7402 50.4693 68.894 36.8529 72.7844 31.2462L81.7094 35.7087C75.1873 52.8721 68.6652 64.8865 67.2921 65.9163C65.919 66.9461 63.8594 66.9461 62.1431 66.9461C60.4267 66.9461 57.3373 65.9163 56.3075 64.5433C55.4837 63.4448 55.2777 62.8269 55.2777 61.7971Z" fill="#CFB399" stroke="#3E3B39" stroke-width="2" stroke-linecap="round"/>
<path d="M83.0824 39.9873C80.8855 46.578 77.5901 53.4892 76.2171 56.1209C76.9036 58.4093 77.0409 63.9474 72.0979 67.792C67.1548 71.6366 59.969 70.3093 56.994 69.1651C54.2479 68.2497 49.0302 64.5653 50.1287 57.1507C51.2271 49.7361 56.7652 47.4247 59.3969 47.1959L61.9714 42.905L64.5459 38.6142C54.6598 42.7334 51.2729 36.8978 51.1585 33.4652C50.6093 19.7344 44.522 17.6748 41.547 18.3613C35.2537 18.9335 20.4703 22.9611 11.6826 34.495C2.89493 46.0288 0.92686 58.5238 1.04128 63.3295C0.698015 68.8218 2.3457 81.5914 11.6826 88.7314C23.3537 97.6564 39.1441 96.9698 50.1287 95.2535C58.9163 93.8804 68.894 88.0448 72.7844 85.2987C76.2171 82.8958 83.9063 74.932 87.2017 62.2997C90.497 49.6674 85.8286 42.1613 83.0824 39.9873Z" fill="#F8F5F0" stroke="#3E3B39" stroke-width="2" stroke-linecap="round"/>
<path d="M29.5889 31.0838C34.3843 28.888 39.5736 30.5566 41.3419 34.4182C43.1102 38.2799 40.983 43.2987 36.1875 45.4945C31.3921 47.6902 26.2027 46.0218 24.4344 42.1601C22.6663 38.2985 24.7936 33.2797 29.5889 31.0838Z" fill="#89C4DD" stroke="#3E3B39" stroke-width="2"/>
<path d="M46.5205 75.3504C51.3159 73.1546 56.5052 74.8232 58.2736 78.6848C60.0418 82.5465 57.9146 87.5653 53.1191 89.7611C48.3237 91.9568 43.1343 90.2884 41.3661 86.4267C39.598 82.5651 41.7252 77.5463 46.5205 75.3504Z" fill="#FF8999" stroke="#3E3B39" stroke-width="2"/>
<path d="M28.1756 72.9831C32.8724 75.3826 34.7823 80.488 32.8502 84.2703C30.9179 88.0526 25.6618 89.497 20.9649 87.0975C16.2681 84.6979 14.3581 79.5925 16.2903 75.8103C18.2226 72.0281 23.4788 70.5837 28.1756 72.9831Z" fill="#F8E196" stroke="#3E3E39" stroke-width="2"/>
<path d="M9.16164 53.7756C11.4528 49.025 16.5131 46.9985 20.3387 48.8435C24.1643 50.6886 25.7288 55.9102 23.4376 60.6608C21.1463 65.4113 16.0861 67.438 12.2605 65.5929C8.43509 63.7478 6.87058 58.5261 9.16164 53.7756Z" fill="#9ECA79" stroke="#3E3B39" stroke-width="2"/>
</svg>
